<svg width="31" height="26" viewBox="0 0 31 26" fill="none" xmlns="http://www.w3.org/2000/svg">
<path d="M4.39142 0C4.0769 0 3.76175 0.0278041 3.45533 0.0840595C3.2817 0.115097 3.12927 0.221788 3.03544 0.375682C2.94161 0.530546 2.91512 0.71871 2.9625 0.894589L3.77048 3.891C3.84841 4.18036 4.11243 4.37596 4.39703 4.3627L4.46062 4.36141C5.91573 4.36141 8.57533 6.62326 9.931 11.6504C9.98493 11.8511 10.0357 12.0551 10.0844 12.2666C8.56192 11.4855 6.74709 11.3047 5.10308 11.7797C1.39486 12.856 -0.778455 16.8604 0.258949 20.7065C1.09935 23.8229 3.86337 26 6.98057 26C7.61554 26 8.24958 25.9092 8.86554 25.7304C11.311 25.0214 13.1498 22.9153 14.0435 19.8016C14.8496 16.9924 14.8297 13.5925 13.989 10.4735C12.3518 4.40505 8.31598 0 4.39142 0Z" fill="#F56F46" stroke="#F56F46" stroke-width="0.000639993"/>
<path d="M20.7576 0C20.4431 0 20.128 0.0278041 19.8215 0.0840595C19.6479 0.115097 19.4955 0.221788 19.4017 0.375682C19.3078 0.530546 19.2813 0.71871 19.3287 0.894589L20.1367 3.891C20.2146 4.18036 20.4786 4.37596 20.7632 4.3627L20.8268 4.36141C22.2819 4.36141 24.9415 6.62326 26.2972 11.6504C26.3511 11.8511 26.4019 12.0551 26.4506 12.2666C24.9281 11.4855 23.1133 11.3047 21.4693 11.7797C17.7611 12.856 15.5878 16.8604 16.6252 20.7065C17.4656 23.8229 20.2296 26 23.3468 26C23.9818 26 24.6158 25.9092 25.2318 25.7304C27.6772 25.0214 29.516 22.9153 30.4097 19.8016C31.2158 16.9924 31.1959 13.5925 30.3552 10.4735C28.718 4.40505 24.6822 0 20.7576 0Z" fill="#F56F46" stroke="#F56F46" stroke-width="0.000639993"/>
</svg>
