<svg width="740" height="712" viewBox="0 0 740 712" fill="none" xmlns="http://www.w3.org/2000/svg">
<path d="M700.924 0.347143C686.741 0.926005 666.768 3.06779 653.164 5.44113C650.443 5.90422 645.233 6.59885 641.586 6.94617C636.607 7.46714 632.671 8.33544 625.956 10.4193C621.035 11.9244 612.93 14.2977 608.009 15.687C595.505 19.1602 557.297 32.3003 556.603 33.3423C556.371 33.6317 552.84 35.4262 548.672 37.2785C482.213 67.3215 423.338 113.804 371.758 177.132C366.49 183.557 352.712 201.791 348.891 207.348C347.675 209.2 346.46 210.706 346.17 210.706C345.938 210.706 344.665 210.011 343.391 209.2C331.524 201.733 312.072 200.981 293.837 207.29C286.022 209.953 272.07 217.073 263.502 222.804C228.768 245.9 191.371 287.231 150.037 348.301L140.948 361.788L144.479 364.914L148.068 368.098L149.631 366.825C150.442 366.13 156.694 360.631 163.525 354.611C204.685 317.969 242.546 290.067 268.423 277.217C281.506 270.733 287.064 268.939 294.821 268.939C300.205 268.881 301.131 269.055 302.694 270.155C303.678 270.849 304.894 272.412 305.473 273.628L306.457 275.885L302 284.221C299.51 288.852 297.426 292.73 297.31 292.846C297.252 292.962 296.674 292.672 296.095 292.151C295.111 291.225 294.647 292.209 286.137 313.338C281.217 325.494 275.717 338.981 273.865 343.265C272.012 347.548 270.507 351.311 270.565 351.658C270.565 351.948 275.717 357.563 282.085 364.104L293.547 375.913L288.569 377.765C259.045 388.3 223.558 415.623 191.139 452.67C185.697 458.921 181.761 464.247 169.198 482.481C163.062 491.396 155.536 502.047 152.526 506.214C114.492 558.428 73.7946 593.796 23.0246 618.803C16.6566 621.929 9.1308 625.46 6.23627 626.618C3.34174 627.833 0.910332 628.933 0.73666 629.049C0.273535 629.57 7.10463 628.702 13.5884 627.428C46.0071 621.176 83.5203 603.926 125.665 575.909C131.743 571.799 136.78 568.616 136.78 568.789C136.78 569.253 120.918 589.918 111.655 601.437C97.2403 619.44 83.8097 635.243 68.2371 652.377C56.4853 665.344 26.6138 695.039 16.5408 703.838C11.9674 707.832 8.26244 711.132 8.26244 711.305C8.26244 712.347 28.7557 699.612 42.4179 690.061C78.2522 665.054 136.317 618.572 188.765 572.899C194.844 567.574 199.88 563.348 199.88 563.464C199.88 563.638 197.102 567.574 193.686 572.32C155.131 625.692 131.975 661.176 113.508 695.155C111.018 699.728 109.05 703.548 109.166 703.664C109.224 703.78 113.392 699.381 118.37 693.881C154.957 653.477 187.492 623.492 234.325 586.966C270.507 558.775 284.343 546.619 299.279 530.121C315.546 512.177 330.308 491.743 345.591 465.926C351.67 455.738 353.985 451.049 355.664 445.723C356.417 443.35 357.111 441.266 357.169 441.092C357.285 440.977 362.553 446.013 368.921 452.38L380.441 463.9L386.115 461.468C389.241 460.137 396.361 457.127 401.919 454.754C417.202 448.27 430.054 442.366 444.179 435.304L456.973 428.879L459.404 430.21C463.051 432.236 464.151 434.667 464.093 440.224C463.804 462.337 430.864 510.672 373.9 572.668C367.474 579.614 362.206 585.519 362.148 585.692C362.09 585.924 363.364 587.66 365.1 589.513L368.168 592.986L377.084 587.255C447.421 542.278 495.817 498.458 517.411 460.253C525.92 445.202 529.915 431.657 530.031 417.938C530.147 407.461 528.294 399.878 524.068 392.989L522.447 390.326L530.32 384.885C573.622 355.016 613.335 318.374 644.017 280.111C666.711 251.747 685.757 221.183 700.924 188.767C703.934 182.399 707.002 176.263 707.813 174.99C708.565 173.774 709.897 170.59 710.649 167.87C711.46 165.149 713.486 159.187 715.107 154.556C727.727 119.361 735.195 86.8291 738.553 51.808C739.711 40.0571 740.29 18.0024 739.711 9.08796C739.363 2.95202 739.19 2.31527 738.205 2.31527C737.569 2.31527 736.469 1.91007 735.774 1.44698C734.79 0.810232 731.374 0.578688 720.028 0.405029C712.039 0.231371 703.471 0.231371 700.924 0.347143Z" fill="#F56F46"/>
</svg>
